<mxfile host="app.diagrams.net" modified="2023-12-22T09:24:19.453Z" agent="Mozilla/5.0 (Windows NT 10.0; Win64; x64) AppleWebKit/537.36 (KHTML, like Gecko) Chrome/120.0.0.0 Safari/537.36" etag="Zgxl6NHMZCYU6a4mSD3m" version="22.1.11" type="device">
  <diagram name="Page-1" id="TjVklAgZkNygQsRRETGH">
    <mxGraphModel dx="880" dy="434" grid="1" gridSize="10" guides="1" tooltips="1" connect="1" arrows="1" fold="1" page="1" pageScale="1" pageWidth="827" pageHeight="1169" math="0" shadow="0">
      <root>
        <mxCell id="0" />
        <mxCell id="1" parent="0" />
        <mxCell id="ZWHM6CyVMjpsxh_ZRD_X-2" value="Machine locale" style="whiteSpace=wrap;html=1;aspect=fixed;" vertex="1" parent="1">
          <mxGeometry x="740" y="60" width="140" height="140" as="geometry" />
        </mxCell>
        <mxCell id="ZWHM6CyVMjpsxh_ZRD_X-6" value="Adresse IP :127.0.0.1 ; adresse IP de la machine dans le sous-rÃ©seau local(192.168.110.226 : @IP actuelle)" style="text;html=1;strokeColor=none;fillColor=none;align=center;verticalAlign=middle;whiteSpace=wrap;rounded=0;" vertex="1" parent="1">
          <mxGeometry x="560" y="20" width="470" height="30" as="geometry" />
        </mxCell>
        <mxCell id="ZWHM6CyVMjpsxh_ZRD_X-7" value="Port : 5000" style="text;html=1;strokeColor=none;fillColor=none;align=center;verticalAlign=middle;whiteSpace=wrap;rounded=0;" vertex="1" parent="1">
          <mxGeometry x="660" y="90" width="90" height="30" as="geometry" />
        </mxCell>
        <mxCell id="ZWHM6CyVMjpsxh_ZRD_X-8" value="" style="endArrow=none;html=1;rounded=0;exitX=1;exitY=0.5;exitDx=0;exitDy=0;entryX=-0.021;entryY=0.436;entryDx=0;entryDy=0;entryPerimeter=0;" edge="1" parent="1" source="ZWHM6CyVMjpsxh_ZRD_X-1" target="ZWHM6CyVMjpsxh_ZRD_X-2">
          <mxGeometry width="50" height="50" relative="1" as="geometry">
            <mxPoint x="440" y="250" as="sourcePoint" />
            <mxPoint x="490" y="200" as="targetPoint" />
          </mxGeometry>
        </mxCell>
        <mxCell id="ZWHM6CyVMjpsxh_ZRD_X-9" value="Docker" style="swimlane;whiteSpace=wrap;html=1;" vertex="1" parent="1">
          <mxGeometry x="40" y="20" width="410" height="370" as="geometry" />
        </mxCell>
        <mxCell id="ZWHM6CyVMjpsxh_ZRD_X-1" value="conteneur challenge_1" style="whiteSpace=wrap;html=1;aspect=fixed;" vertex="1" parent="ZWHM6CyVMjpsxh_ZRD_X-9">
          <mxGeometry x="110" y="70" width="60" height="60" as="geometry" />
        </mxCell>
        <mxCell id="ZWHM6CyVMjpsxh_ZRD_X-4" value="Adresse IP : 0.0.0.0; 127.0.0.1 ; 127.0.0.2" style="text;html=1;strokeColor=none;fillColor=none;align=center;verticalAlign=middle;whiteSpace=wrap;rounded=0;" vertex="1" parent="ZWHM6CyVMjpsxh_ZRD_X-9">
          <mxGeometry x="170" y="60" width="240" height="20" as="geometry" />
        </mxCell>
        <mxCell id="ZWHM6CyVMjpsxh_ZRD_X-5" value="Port : 5000" style="text;html=1;strokeColor=none;fillColor=none;align=center;verticalAlign=middle;whiteSpace=wrap;rounded=0;" vertex="1" parent="ZWHM6CyVMjpsxh_ZRD_X-9">
          <mxGeometry x="170" y="80" width="70" height="20" as="geometry" />
        </mxCell>
      </root>
    </mxGraphModel>
  </diagram>
</mxfile>
